<?xml version="1.0" encoding="utf-8"?>
<!-- Generator: Adobe Illustrator 21.0.2, SVG Export Plug-In . SVG Version: 6.00 Build 0)  -->
<svg version="1.1" xmlns="http://www.w3.org/2000/svg" xmlns:xlink="http://www.w3.org/1999/xlink" x="0px" y="0px"
	 viewBox="0 0 954.8 253.9" style="enable-background:new 0 0 954.8 253.9;" xml:space="preserve">
<style type="text/css">
	.st0{fill:#A7A9AB;}
	.st1{fill:#833253;}
	.st2{fill:#FFFFFF;}
	.st3{opacity:0.5;fill:#23007F;enable-background:new    ;}
</style>
<g id="Ebene_1">
	<rect y="121" class="st0" width="205" height="133"/>
	<rect x="754.6" y="59" class="st1" width="35" height="33"/>
	<g>
		<polygon class="st2" points="773.2,71.6 772,70 744,91.5 747.3,91.5 		"/>
		<polygon class="st2" points="723.3,110 747.3,91.5 744,91.5 722.1,108.4 		"/>
		<polygon class="st2" points="772,70 770.7,71.5 796.9,91.5 800.2,91.5 		"/>
		<polygon class="st2" points="822,108.2 800.2,91.5 796.9,91.5 820.8,109.8 		"/>
	</g>
	<rect x="570.6" y="92" class="st1" width="385" height="162.5"/>
	<polygon class="st1" points="772,24.5 767.2,34 776.9,34 	"/>
	<polygon class="st1" points="789.6,59 776.9,34 767.2,34 754.6,59 	"/>
	<rect x="754.6" y="92" class="st3" width="35" height="5"/>
	<polygon class="st1" points="772,112 798.6,92 745.6,92 	"/>
	<polygon class="st1" points="745.6,92 798.6,92 772,72 	"/>
	<path class="st2" d="M772,103.5c6.4,0,11.5-5.1,11.5-11.5h-23C760.6,98.4,765.7,103.5,772,103.5z"/>
	<path class="st2" d="M772,80.5c-6.4,0-11.5,5.1-11.5,11.5h23C783.6,85.6,778.4,80.5,772,80.5z"/>
	<path class="st1" d="M772,101.5c5.2,0,9.5-4.3,9.5-9.5h-19C762.6,97.2,766.8,101.5,772,101.5z"/>
	<path class="st1" d="M772,82.5c-5.2,0-9.5,4.3-9.5,9.5h19C781.6,86.8,777.3,82.5,772,82.5z"/>
	<rect x="570.6" y="134" class="st2" width="385" height="2"/>
	<rect x="274" y="134" class="st0" width="230" height="120"/>
	<polygon class="st0" points="422.6,134 389,152 355.6,134 389,116 	"/>
	<rect x="569.6" y="160" class="st2" width="385" height="2"/>
	<rect x="570.6" y="193" class="st2" width="385" height="2"/>
	<rect x="504.6" y="221" class="st2" width="451" height="2"/>
	<polygon class="st2" points="802.4,221.1 801,222.6 839.8,254.6 843,254.6 	"/>
	<polygon class="st2" points="744.1,223.1 742.8,221.5 704.3,254.5 707.3,254.5 	"/>
	<polygon class="st2" points="707.3,254.5 704.3,254.5 704.2,254.6 707.2,254.6 	"/>
	<polygon class="st2" points="802.7,194 800.7,194 801.4,254.6 803.4,254.6 	"/>
	<polygon class="st2" points="744.7,194 742.7,194 743.4,254.6 745.4,254.6 	"/>
	<polygon class="st2" points="785.7,194 783.7,194 784.4,254.6 786.4,254.6 	"/>
	<polygon class="st2" points="760.7,194 758.7,194 759.4,254.6 761.4,254.6 	"/>
	<g>
		<polygon class="st2" points="770.9,111.9 772.1,113.5 800.1,92 796.8,92 		"/>
		<polygon class="st2" points="820.8,73.5 796.8,92 800.1,92 822,75.1 		"/>
		<polygon class="st2" points="772.1,113.5 773.4,112 747.2,92 743.9,92 		"/>
		<polygon class="st2" points="722.1,75.3 743.9,92 747.2,92 723.3,73.7 		"/>
	</g>
	<polygon class="st2" points="722.1,85.4 723.3,87 773.2,48.6 772,47 	"/>
	<polygon class="st2" points="770.7,48.5 820.8,86.8 822,85.2 772,47 	"/>
	<polygon class="st2" points="422.6,161 389,179 355.6,161 389,143 	"/>
	<rect x="48" y="222.5" class="st2" width="457" height="1"/>
	<rect x="274" y="193.5" class="st2" width="230" height="1"/>
	<rect y="193.5" class="st2" width="504" height="1"/>
	<rect x="274" y="160.5" class="st2" width="230" height="1"/>
	<rect y="160.5" class="st2" width="504" height="1"/>
	<rect x="464.1" y="133.9" class="st2" width="1" height="120"/>
	<rect x="315.1" y="133.9" class="st2" width="1" height="120"/>
	<polygon class="st0" points="422.6,162 389,180 355.6,162 389,144 	"/>
	<polygon class="st2" points="422.6,193.5 389,211.5 355.6,193.5 389,175.5 	"/>
	<polygon class="st0" points="422.6,194.5 389,212.5 355.6,194.5 389,176.5 	"/>
	<polygon class="st2" points="422.6,222.5 389,240.5 355.6,222.5 389,204.5 	"/>
	<polygon class="st0" points="422.6,223.5 389,241.5 355.6,223.5 389,205.5 	"/>
	<rect x="388.6" y="115" class="st2" width="1" height="140"/>
	<rect x="422.1" y="133.9" class="st2" width="1" height="120"/>
	<rect x="356.1" y="133.9" class="st2" width="1" height="120"/>
	<rect x="203.4" y="249" class="st0" width="73.1" height="5"/>
	<rect x="504" y="150" class="st0" width="66" height="72"/>
	<rect x="504.1" y="133.9" class="st2" width="1" height="120"/>
	<polygon class="st2" points="570.7,92 571.4,258 569.4,258 568.7,92 	"/>
	<rect x="493" y="193.5" class="st2" width="90" height="1"/>
	<rect x="537.1" y="150" class="st2" width="1" height="73"/>
	<rect x="48.1" y="193.9" class="st2" width="1" height="60"/>
	<rect x="48" y="208.5" class="st2" width="157" height="1"/>
	<rect x="48" y="208.5" class="st2" width="157" height="1"/>
	<rect x="48" y="248" class="st2" width="157.5" height="1"/>
	<rect x="49" y="236" class="st2" width="156" height="1"/>
	<rect x="63.1" y="193.9" class="st2" width="1" height="60"/>
	<rect x="78.1" y="193.9" class="st2" width="1" height="60"/>
	<rect x="93.1" y="193.9" class="st2" width="1" height="60"/>
	<rect x="108.1" y="193.9" class="st2" width="1" height="60"/>
	<rect x="108.1" y="193.9" class="st2" width="1" height="60"/>
	<rect x="123.1" y="193.9" class="st2" width="1" height="60"/>
	<rect x="138.1" y="193.9" class="st2" width="1" height="60"/>
	<rect x="153.1" y="193.9" class="st2" width="1" height="60"/>
	<rect x="168.1" y="193.9" class="st2" width="1" height="60"/>
	<rect x="138.1" y="193.9" class="st2" width="1" height="60"/>
	<rect x="153.1" y="193.9" class="st2" width="1" height="60"/>
	<rect x="168.1" y="193.9" class="st2" width="1" height="60"/>
	<rect x="183.1" y="193.9" class="st2" width="1" height="60"/>
	<rect x="198.1" y="193.9" class="st2" width="1" height="60"/>
	<g id="Ebene_2">
	</g>
</g>
<g id="Logo">
	<g>
		<path class="st1" d="M12.2,74.7H0V52.9h12.2v2.3H2.5v7h9v2.2h-9v8h9.6V74.7z"/>
		<path class="st1" d="M29.4,52.9h2.7l-7.9,21.8h-2.5L14,52.9h2.7l5,14.1c0.6,1.6,1,3.2,1.4,4.7c0.4-1.6,0.8-3.2,1.4-4.8L29.4,52.9z
			"/>
		<path class="st1" d="M48.9,74.7l-2.7-6.9h-8.7l-2.7,6.9h-2.6l8.6-21.9h2.1l8.6,21.9H48.9z M45.4,65.5l-2.5-6.8
			c-0.3-0.9-0.7-1.9-1-3.1c-0.2,1-0.5,2-0.9,3.1l-2.6,6.8H45.4z"/>
		<path class="st1" d="M71.5,74.7h-2.9L56.7,56.5h-0.1c0.2,2.1,0.2,4.1,0.2,5.9v12.4h-2.3V52.9h2.9l11.9,18.2h0.1
			c0-0.3-0.1-1.1-0.1-2.6c-0.1-1.5-0.1-2.5-0.1-3.1V52.9h2.4V74.7z"/>
		<path class="st1" d="M87.1,63.3h7.4v10.6c-1.2,0.4-2.3,0.6-3.5,0.8c-1.2,0.2-2.6,0.3-4.1,0.3c-3.3,0-5.9-1-7.7-2.9
			c-1.8-2-2.8-4.7-2.8-8.3c0-2.3,0.5-4.3,1.4-6c0.9-1.7,2.2-3,3.9-3.9c1.7-0.9,3.7-1.3,6-1.3c2.3,0,4.5,0.4,6.5,1.3l-1,2.2
			c-2-0.8-3.9-1.3-5.7-1.3c-2.7,0-4.7,0.8-6.2,2.4c-1.5,1.6-2.2,3.8-2.2,6.6c0,2.9,0.7,5.2,2.2,6.7c1.4,1.5,3.5,2.3,6.3,2.3
			c1.5,0,3-0.2,4.4-0.5v-6.7h-4.9V63.3z"/>
		<path class="st1" d="M111.9,74.7H99.7V52.9h12.2v2.3h-9.6v7h9v2.2h-9v8h9.6V74.7z"/>
		<path class="st1" d="M116.7,74.7V52.9h2.5v19.5h9.6v2.3H116.7z"/>
		<path class="st1" d="M132.6,74.7V52.9h2.5v21.8H132.6z"/>
		<path class="st1" d="M153.4,68.9c0,1.9-0.7,3.4-2.1,4.5c-1.4,1.1-3.3,1.6-5.7,1.6c-2.6,0-4.6-0.3-6-1v-2.4
			c0.9,0.4,1.9,0.7,2.9,0.9c1.1,0.2,2.1,0.3,3.1,0.3c1.7,0,3-0.3,3.8-1s1.3-1.5,1.3-2.7c0-0.8-0.2-1.4-0.5-1.9
			c-0.3-0.5-0.8-0.9-1.5-1.3c-0.7-0.4-1.8-0.9-3.2-1.4c-2-0.7-3.5-1.6-4.3-2.6c-0.9-1-1.3-2.3-1.3-3.9c0-1.7,0.6-3,1.9-4
			c1.3-1,2.9-1.5,5-1.5c2.2,0,4.2,0.4,6,1.2L152,56c-1.8-0.8-3.5-1.1-5.2-1.1c-1.3,0-2.4,0.3-3.1,0.9c-0.8,0.6-1.1,1.4-1.1,2.4
			c0,0.8,0.1,1.4,0.4,1.9c0.3,0.5,0.7,0.9,1.4,1.3c0.7,0.4,1.7,0.8,3,1.3c2.3,0.8,3.9,1.7,4.7,2.6C152.9,66.2,153.4,67.5,153.4,68.9
			z"/>
		<path class="st1" d="M167.2,54.9c-2.4,0-4.3,0.8-5.7,2.4s-2.1,3.8-2.1,6.6c0,2.9,0.7,5.1,2,6.6s3.2,2.3,5.7,2.3
			c1.5,0,3.3-0.3,5.2-0.8v2.2c-1.5,0.6-3.4,0.9-5.6,0.9c-3.2,0-5.7-1-7.4-2.9s-2.6-4.7-2.6-8.3c0-2.2,0.4-4.2,1.3-5.9
			c0.8-1.7,2.1-3,3.6-3.9s3.5-1.4,5.6-1.4c2.3,0,4.3,0.4,6,1.3l-1.1,2.2C170.5,55.3,168.8,54.9,167.2,54.9z"/>
		<path class="st1" d="M193.6,74.7h-2.5V64.5h-11.5v10.3h-2.5V52.9h2.5v9.3h11.5v-9.3h2.5V74.7z"/>
		<path class="st1" d="M219.9,68.9c0,1.9-0.7,3.4-2.1,4.5c-1.4,1.1-3.3,1.6-5.7,1.6c-2.6,0-4.6-0.3-6-1v-2.4
			c0.9,0.4,1.9,0.7,2.9,0.9c1.1,0.2,2.1,0.3,3.1,0.3c1.7,0,3-0.3,3.8-1s1.3-1.5,1.3-2.7c0-0.8-0.2-1.4-0.5-1.9
			c-0.3-0.5-0.8-0.9-1.5-1.3c-0.7-0.4-1.8-0.9-3.2-1.4c-2-0.7-3.5-1.6-4.3-2.6c-0.9-1-1.3-2.3-1.3-3.9c0-1.7,0.6-3,1.9-4
			c1.3-1,2.9-1.5,5-1.5c2.2,0,4.2,0.4,6,1.2l-0.8,2.2c-1.8-0.8-3.5-1.1-5.2-1.1c-1.3,0-2.4,0.3-3.1,0.9c-0.8,0.6-1.1,1.4-1.1,2.4
			c0,0.8,0.1,1.4,0.4,1.9c0.3,0.5,0.7,0.9,1.4,1.3c0.7,0.4,1.7,0.8,3,1.3c2.3,0.8,3.9,1.7,4.7,2.6C219.4,66.2,219.9,67.5,219.9,68.9
			z"/>
		<path class="st1" d="M231,74.7h-2.5V55.2h-6.9v-2.3h16.3v2.3H231V74.7z"/>
		<path class="st1" d="M241.2,74.7V52.9h2.5v21.8H241.2z"/>
		<path class="st1" d="M252.3,74.7h-2.5V52.9h12.2v2.3h-9.6v8h9v2.3h-9V74.7z"/>
		<path class="st1" d="M272.2,74.7h-2.5V55.2h-6.9v-2.3h16.3v2.3h-6.9V74.7z"/>
		<path class="st1" d="M282.4,74.7V52.9h2.5v21.8H282.4z"/>
		<path class="st1" d="M303.2,68.9c0,1.9-0.7,3.4-2.1,4.5c-1.4,1.1-3.3,1.6-5.7,1.6c-2.6,0-4.6-0.3-6-1v-2.4
			c0.9,0.4,1.9,0.7,2.9,0.9c1.1,0.2,2.1,0.3,3.1,0.3c1.7,0,3-0.3,3.8-1s1.3-1.5,1.3-2.7c0-0.8-0.2-1.4-0.5-1.9
			c-0.3-0.5-0.8-0.9-1.5-1.3c-0.7-0.4-1.8-0.9-3.2-1.4c-2-0.7-3.5-1.6-4.3-2.6c-0.9-1-1.3-2.3-1.3-3.9c0-1.7,0.6-3,1.9-4
			c1.3-1,2.9-1.5,5-1.5c2.2,0,4.2,0.4,6,1.2l-0.8,2.2c-1.8-0.8-3.5-1.1-5.2-1.1c-1.3,0-2.4,0.3-3.1,0.9c-0.8,0.6-1.1,1.4-1.1,2.4
			c0,0.8,0.1,1.4,0.4,1.9c0.3,0.5,0.7,0.9,1.4,1.3c0.7,0.4,1.7,0.8,3,1.3c2.3,0.8,3.9,1.7,4.7,2.6C302.8,66.2,303.2,67.5,303.2,68.9
			z"/>
		<path class="st1" d="M317,54.9c-2.4,0-4.3,0.8-5.7,2.4s-2.1,3.8-2.1,6.6c0,2.9,0.7,5.1,2,6.6s3.2,2.3,5.7,2.3
			c1.5,0,3.3-0.3,5.2-0.8v2.2c-1.5,0.6-3.4,0.9-5.6,0.9c-3.2,0-5.7-1-7.4-2.9s-2.6-4.7-2.6-8.3c0-2.2,0.4-4.2,1.3-5.9
			c0.8-1.7,2.1-3,3.6-3.9s3.5-1.4,5.6-1.4c2.3,0,4.3,0.4,6,1.3l-1.1,2.2C320.3,55.3,318.6,54.9,317,54.9z"/>
		<path class="st1" d="M343.5,74.7h-2.5V64.5h-11.5v10.3h-2.5V52.9h2.5v9.3h11.5v-9.3h2.5V74.7z"/>
		<path class="st1" d="M361.6,74.7h-12.2V52.9h12.2v2.3H352v7h9v2.2h-9v8h9.6V74.7z"/>
		<path class="st1" d="M378.7,68.9c0,1.9-0.7,3.4-2.1,4.5c-1.4,1.1-3.3,1.6-5.7,1.6c-2.6,0-4.6-0.3-6-1v-2.4
			c0.9,0.4,1.9,0.7,2.9,0.9c1.1,0.2,2.1,0.3,3.1,0.3c1.7,0,3-0.3,3.8-1s1.3-1.5,1.3-2.7c0-0.8-0.2-1.4-0.5-1.9
			c-0.3-0.5-0.8-0.9-1.5-1.3c-0.7-0.4-1.8-0.9-3.2-1.4c-2-0.7-3.5-1.6-4.3-2.6c-0.9-1-1.3-2.3-1.3-3.9c0-1.7,0.6-3,1.9-4
			c1.3-1,2.9-1.5,5-1.5c2.2,0,4.2,0.4,6,1.2l-0.8,2.2c-1.8-0.8-3.5-1.1-5.2-1.1c-1.3,0-2.4,0.3-3.1,0.9c-0.8,0.6-1.1,1.4-1.1,2.4
			c0,0.8,0.1,1.4,0.4,1.9c0.3,0.5,0.7,0.9,1.4,1.3c0.7,0.4,1.7,0.8,3,1.3c2.3,0.8,3.9,1.7,4.7,2.6C378.3,66.2,378.7,67.5,378.7,68.9
			z"/>
		<path class="st1" d="M400.7,63.3h7.4v10.6c-1.2,0.4-2.3,0.6-3.5,0.8c-1.2,0.2-2.6,0.3-4.1,0.3c-3.3,0-5.9-1-7.7-2.9
			c-1.8-2-2.8-4.7-2.8-8.3c0-2.3,0.5-4.3,1.4-6c0.9-1.7,2.2-3,3.9-3.9c1.7-0.9,3.7-1.3,6-1.3c2.3,0,4.5,0.4,6.5,1.3l-1,2.2
			c-2-0.8-3.9-1.3-5.7-1.3c-2.7,0-4.7,0.8-6.2,2.4c-1.5,1.6-2.2,3.8-2.2,6.6c0,2.9,0.7,5.2,2.2,6.7c1.4,1.5,3.5,2.3,6.3,2.3
			c1.5,0,3-0.2,4.4-0.5v-6.7h-4.9V63.3z"/>
		<path class="st1" d="M418.9,63.8l5.8-10.9h2.7l-7.3,13.3v8.5h-2.6v-8.3l-7.3-13.5h2.8L418.9,63.8z"/>
		<path class="st1" d="M440.1,74.7l-7.4-19.3h-0.1c0.1,1.5,0.2,3.3,0.2,5.5v13.9h-2.3V52.9h3.8l6.9,18h0.1l7-18h3.8v21.8h-2.5v-14
			c0-1.6,0.1-3.4,0.2-5.2h-0.1l-7.5,19.3H440.1z"/>
		<path class="st1" d="M475,74.7h-2.9l-11.9-18.3h-0.1c0.2,2.1,0.2,4.1,0.2,5.9v12.4H458V52.9h2.9l11.9,18.2h0.1
			c0-0.3-0.1-1.1-0.1-2.6c-0.1-1.5-0.1-2.5-0.1-3.1V52.9h2.4V74.7z"/>
		<path class="st1" d="M494.7,74.7l-2.7-6.9h-8.7l-2.7,6.9H478l8.6-21.9h2.1l8.6,21.9H494.7z M491.2,65.5l-2.5-6.8
			c-0.3-0.9-0.7-1.9-1-3.1c-0.2,1-0.5,2-0.9,3.1l-2.6,6.8H491.2z"/>
		<path class="st1" d="M512.7,68.9c0,1.9-0.7,3.4-2.1,4.5c-1.4,1.1-3.3,1.6-5.7,1.6c-2.6,0-4.6-0.3-6-1v-2.4
			c0.9,0.4,1.9,0.7,2.9,0.9c1.1,0.2,2.1,0.3,3.1,0.3c1.7,0,3-0.3,3.8-1c0.9-0.6,1.3-1.5,1.3-2.7c0-0.8-0.2-1.4-0.5-1.9
			c-0.3-0.5-0.8-0.9-1.5-1.3c-0.7-0.4-1.8-0.9-3.2-1.4c-2-0.7-3.5-1.6-4.3-2.6c-0.9-1-1.3-2.3-1.3-3.9c0-1.7,0.6-3,1.9-4
			c1.3-1,2.9-1.5,5-1.5c2.2,0,4.2,0.4,6,1.2l-0.8,2.2c-1.8-0.8-3.5-1.1-5.2-1.1c-1.3,0-2.4,0.3-3.1,0.9c-0.8,0.6-1.1,1.4-1.1,2.4
			c0,0.8,0.1,1.4,0.4,1.9c0.3,0.5,0.7,0.9,1.4,1.3c0.7,0.4,1.7,0.8,3,1.3c2.3,0.8,3.9,1.7,4.7,2.6C512.2,66.2,512.7,67.5,512.7,68.9
			z"/>
		<path class="st1" d="M517.1,74.7V52.9h2.5v21.8H517.1z"/>
		<path class="st1" d="M542.1,52.9v14.1c0,2.5-0.8,4.4-2.3,5.9c-1.5,1.4-3.6,2.1-6.2,2.1s-4.7-0.7-6.1-2.1c-1.4-1.4-2.2-3.4-2.2-5.9
			v-14h2.5v14.2c0,1.8,0.5,3.2,1.5,4.2c1,1,2.5,1.5,4.4,1.5c1.8,0,3.3-0.5,4.2-1.5s1.5-2.4,1.5-4.2V52.9H542.1z"/>
		<path class="st1" d="M557.5,74.7l-7.4-19.3H550c0.1,1.5,0.2,3.3,0.2,5.5v13.9h-2.3V52.9h3.8l6.9,18h0.1l7-18h3.8v21.8h-2.5v-14
			c0-1.6,0.1-3.4,0.2-5.2H567l-7.5,19.3H557.5z"/>
	</g>
</g>
</svg>
